 [img]http://img710.imageshack.us/img710/4323/meantobe.jpg[/img]
[code]
Meant to Be 2011 R5 DVDRip XVID AC3-26K
Imdb: 
http://www.imdb.com/title/tt1290140/

Plot:
A delightful romantic comedy about about a guardian angel who falls for the young woman he is 

protecting.

Sources:
Meant to Be 2010 P DVD ELEKTRI4KA!!

Notes:
Enjoy.!

Greetz:
Xtreme 

Encode|FYA|ILLUMANTI|CM8|RX|VISION|HDSCENE|NIGHTMAREZ|xTriLL|DTRG|CRYS|REMIXHD|BIDA|RX|REFILL|INSPiRAL

|SIC|ZOMBIESZ|HOPE|Anonymous|GooN
To all the people who have helped me :P you know who you are

Anything to offer email us @: 26k@hushmail.me

Video
ID                                       : 0
Format                                   : MPEG-4 Visual
Format profile                           : Advanced Simple@L5
Format settings, BVOP                    : 2
Format settings, QPel                    : No
Format settings, GMC                     : No warppoints
Format settings, Matrix                  : Default (H.263)
Codec ID                                 : XVID
Codec ID/Hint                            : XviD
Duration                                 : 1h 42mn
Bit rate                                 : 1 400 Kbps
Width                                    : 720 pixels
Height                                   : 384 pixels
Display aspect ratio                     : 1.875
Frame rate                               : 25.000 fps
Color space                              : YUV
Chroma subsampling                       : 4:2:0
Bit depth                                : 8 bits
Scan type                                : Progressive
Compression mode                         : Lossy
Bits/(Pixel*Frame)                       : 0.202
Stream size                              : 1.00 GiB (86%)
Writing library                          : XviD 63

Audio
ID                                       : 1
Format                                   : AC-3
Format/Info                              : Audio Coding 3
Mode extension                           : CM (complete main)
Codec ID                                 : 2000
Duration                                 : 1h 42mn
Bit rate mode                            : Constant
Bit rate                                 : 224 Kbps
Channel(s)                               : 6 channels
Channel positions                        : Front: L C R, Side: L R, LFE
Sampling rate                            : 48.0 KHz
Bit depth                                : 16 bits
Compression mode                         : Lossy
Stream size                              : 164 MiB (14%)
Alignment                                : Aligned on interleaves
Interleave, duration                     : 32 ms (0.80 video frame)

[/code]
Screens:
[img]http://img40.imageshack.us/img40/6749/vlcsnap2012020119h19m37.png[/img]
[img]http://img806.imageshack.us/img806/9219/vlcsnap2012020119h20m29.png[/img]
[img]http://img32.imageshack.us/img32/8250/vlcsnap2012020119h21m38.png[/img]
[img]http://img14.imageshack.us/img14/784/vlcsnap2012020119h23m04.png[/img]


[img]http://img851.imageshack.us/img851/5503/26ks.jpg[/img]
Thank you smallz for banner! 